**ABCDEFGHIJKLMNOPQRSTUVWXYZabcdefghijklmnopqrstuvwxyz**************************
**PARASOLID !"#$%&'()*+,-./:;<=>?@[\]^_`{|}~0123456789**************************
**PART1;
MC=x64/Windows NT;
MC_MODEL=genuineintel family 6 model 14 stepping 12, intel(r) core(tm) i7-9700k cpu @ 3.60ghz;
MC_ID=desktop-ae50iec;
OS=windows nt (x64);
OS_RELEASE=6.3 windows 10 education (build 17763) ;
FRU=mdc_ugii_v7.0_djl_can_vrh;
APPL=unigraphics;
SITE=unknown;
USER=CC;
FORMAT=text;
GUISE=transmit;
KEY=cup_a_5_h_0.5_b_0.2;
FILE=C:\Users\CC\Desktop\cup\cup_a_5_h_0.5_b_0.2.x_t;
DATE=24-may-2019;
**PART2;
SCH=SCH_2700178_26105;
USFLD_SIZE=0;
**PART3;
**END_OF_HEADER*****************************************************************
T51 : TRANSMIT FILE created by modeller version 270017823 SCH_2700178_26105_1300
6196 0 12 30 CCCCCCCCCCCCCDI5 owner1040 0 CCCCCCCCCA13 boundary_mesh1006 0 A16 i
ndex_map_offset0 0 1 dA9 index_map82 0 A17 node_id_index_map82 0 A20 schema_embe
dding_map82 0 A5 child12 0 A14 lowest_node_id0 0 1 dZ1 289 2 3 0 0 0 0 1e3 1e-8
 0 0 0 1 0 1 1 4 5 6 7 8 9 10 0 0 0 0 0 0 0 81 255 1 2 289 11 1 12 0 0 0 13 70 1
1 CI9 list_type0 0 1 uI10 notransmit0 0 1 lCCCDCCDI12 finger_index0 0 1 dI12 fin
ger_block1012 0 CZ3 0 4 T1 0 0 5 20 1 14 14 13 255 4 3 0 1 0 15 0 0 16 0 50 255
 5 54 0 15 17 0 0 +.025 .025 .025 0 0 1 1 0 0 30 255 6 62 0 9 18 0 0 +.025 0 .02
5 -1 0 0 29 255 7 103 0 10 19 0 .04 .04 .025 19 8 CCCCCCCA5 owner12 0 Z8 1 0 1 1
6 0 20 V0 16 255 9 34 21 ?22 0 23 6 0 0 1 18 255 10 101 0 24 0 25 7 ?1 17 255 24
 0 26 27 28 10 29 30 0 31 -18 25 23 0 22 10 32 19 ?1 17 22 0 33 34 35 25 36 9 0
 37 +18 32 21 0 38 25 39 40 ?1 29 19 58 0 25 40 7 0 0 .025 29 40 57 0 32 41 19 0
 .05 .025 29 41 56 0 39 42 40 .05 .05 .025 18 39 19 0 43 32 44 41 ?1 29 42 55 0
 44 45 41 .05 0 .025 18 44 17 0 36 39 46 42 ?1 29 45 41 0 47 48 42 0 0 0 18 47 1
1 0 34 49 50 45 ?1 29 48 40 0 49 51 45 0 .05 0 18 49 13 0 52 46 47 48 ?1 29 51 3
9 0 46 53 48 .05 .05 0 18 46 15 0 54 44 49 51 ?1 29 53 38 0 50 55 51 .05 0 0 18
 50 10 0 56 47 57 53 ?1 29 55 208 0 58 59 53 .04 .01 .025 18 58 158 0 28 60 61 5
5 ?1 29 59 210 0 61 62 55 .01 .04 .025 18 61 163 0 63 58 64 59 ?1 29 62 211 0 64
 65 59 .01 .01 .025 18 64 159 0 66 61 0 62 ?1 29 65 212 0 57 67 62 .04 .01 .01 1
8 57 161 0 68 50 69 65 ?1 29 67 213 0 69 70 65 .04 .04 .01 18 69 160 0 71 57 72
 67 ?1 29 70 214 0 72 73 67 .01 .04 .01 18 72 157 0 74 69 60 70 ?1 29 73 215 0 6
0 0 70 .01 .01 .01 18 60 162 0 75 72 58 73 ?1 17 75 0 76 66 77 60 78 79 0 80 -15
 255 76 179 0 81 82 0 17 66 0 76 81 75 64 80 83 0 84 -17 77 0 76 75 81 57 28 85
 0 78 +17 78 0 86 87 88 57 75 79 0 0 +16 79 154 89 ?78 83 90 91 0 0 1 17 80 0 92
 93 84 60 66 83 0 88 +15 92 167 0 84 94 0 17 93 0 92 95 80 72 88 96 0 97 -17 84
 0 92 80 95 64 98 99 0 100 -16 83 128 101 ?80 85 79 102 0 0 1 17 88 0 86 78 74 6
0 93 96 0 0 +15 86 183 0 88 103 0 17 74 0 86 88 87 72 71 104 0 93 +16 96 148 105
 ?88 104 106 107 0 0 1 81 1 105 250 108 96 0 0 109 101 110 16 104 150 111 ?74 90
 96 112 0 0 1 16 106 142 113 ?100 96 30 114 0 0 1 30 107 207 0 96 0 112 0 -.01 .
01 .01 1214306433183764e-30 1 0 30 112 206 0 104 107 115 0 -.01 .04 .01 1 -11564
82317317872e-30 0 30 115 205 0 90 112 91 0 -.04 .04 .01 -1156482317317872e-30 -1
 0 16 90 152 116 ?87 79 104 115 0 0 1 30 91 204 0 79 115 117 0 -.04 .01 .01 -1 1
156482317317872e-30 0 30 117 203 0 99 91 118 0 +.01 .01 .025 1214306433183764e-3
0 1 0 16 99 124 109 ?98 119 0 117 0 0 1 30 118 202 0 119 117 120 0 +.01 .04 .025
 1 -1156482317317872e-30 0 16 119 130 121 ?122 30 99 118 0 0 1 30 120 201 0 30 1
18 114 0 +.04 .04 .025 -1156482317317872e-30 -1 0 16 30 136 123 ?29 106 119 120
 0 0 1 30 114 200 0 106 120 124 0 +.04 .01 .025 -1 1156482317317872e-30 0 30 124
 199 0 85 114 125 0 -.04 .01 .01 0 0 1 16 85 146 126 ?77 127 83 124 0 0 1 30 125
 198 0 127 124 128 0 -.04 .04 .01 0 0 1 16 127 140 129 ?27 130 85 125 0 0 1 30 1
28 197 0 130 125 102 0 -.01 .04 .01 0 0 1 16 130 134 131 ?97 132 127 128 0 0 1 3
0 102 196 0 83 128 133 0 -.01 .01 .01 0 0 1 30 133 42 0 132 102 134 0 +.025 0 0
 1 0 0 16 132 12 135 ?136 137 130 133 0 0 1 30 134 43 0 138 133 139 0 +.05 .025
 0 0 1 0 16 138 6 140 ?141 142 143 134 0 0 1 30 139 44 0 143 134 144 0 +.025 .05
 0 -1 0 0 16 143 16 145 ?146 138 137 139 0 0 1 30 144 45 0 137 139 147 0 +0 .025
 0 0 -1 0 16 137 14 148 ?149 143 132 144 0 0 1 30 147 50 0 142 144 150 0 +.05 0
 0 0 0 1 16 142 18 151 ?35 152 138 147 0 0 1 30 150 51 0 152 147 153 0 +.05 .05
 0 0 0 1 16 152 20 154 ?155 156 142 150 0 0 1 30 153 52 0 156 150 157 0 +0 .05 0
 0 0 1 16 156 22 158 ?159 160 152 153 0 0 1 30 157 53 0 160 153 161 0 +0 0 0 0 0
 1 16 160 24 162 ?163 164 156 157 0 0 1 30 161 59 0 164 157 165 0 +.05 .025 .025
 0 -1 0 16 164 25 166 ?167 168 160 161 0 0 1 30 165 60 0 168 161 18 0 +.025 .05
 .025 1 0 0 16 168 28 169 ?43 23 164 165 0 0 1 30 18 61 0 23 165 6 0 +0 .025 .02
5 0 1 0 16 23 31 170 ?38 9 168 18 0 0 1 81 1 170 82 108 23 0 0 154 151 171 17 38
 0 172 52 163 32 37 23 0 173 +15 172 29 0 163 174 0 17 52 0 172 149 38 49 159 15
6 0 146 -17 163 0 172 38 149 25 34 160 0 0 +17 37 0 175 36 173 25 38 23 0 163 -1
7 173 0 175 37 176 32 43 168 0 159 -15 175 35 0 36 15 177 17 176 0 175 173 36 39
 167 164 0 155 -17 43 0 178 54 159 39 173 168 0 176 +17 159 0 178 43 146 32 52 1
56 0 0 +15 178 26 0 159 179 0 17 146 0 178 159 54 49 180 143 0 181 +17 54 0 178
 146 43 46 155 152 0 180 -17 180 0 182 183 181 46 146 143 0 141 -17 181 0 182 18
0 184 49 149 137 0 0 -15 182 8 0 183 185 0 17 184 0 182 181 183 47 136 132 0 0 -
17 149 0 172 163 52 47 181 137 0 184 +17 183 0 182 184 180 50 141 138 0 0 -17 13
6 0 33 35 34 50 184 132 0 183 +15 33 32 0 35 186 0 17 35 0 33 22 136 44 56 142 0
 0 +17 34 0 33 136 22 47 163 160 0 149 -17 56 0 187 141 167 50 35 142 0 136 -15
 187 7 0 141 188 0 17 141 0 187 155 56 46 183 138 0 0 +17 167 0 187 56 155 44 17
6 164 0 35 +17 155 0 187 167 141 39 54 152 0 0 +14 255 188 2 189 ?94 185 187 4 1
90 +0 0 94 185 20 81 1 189 278 191 188 192 0 193 194 195 14 94 164 194 ?196 188
 92 4 197 +0 0 196 188 20 14 185 9 193 ?188 179 182 4 198 +0 0 188 179 20 50 190
 46 0 188 198 199 0 +.05 .025 0 1 0 0 0 0 -1 13 20 4 0 0 0 0 0 0 8 15 14 15 36 2
00 ?186 0 175 4 5 +0 0 186 0 20 81 1 200 268 191 15 201 0 0 202 203 14 186 33 20
2 ?174 15 33 4 17 +0 0 174 15 20 81 1 202 270 191 186 204 0 200 205 206 14 174 3
0 205 ?179 186 172 4 207 +0 0 179 186 20 50 17 49 0 186 207 5 0 +.025 0 0 0 -1 0
 0 0 -1 50 207 48 0 174 199 17 0 +0 .025 0 -1 0 0 0 0 1 50 199 47 0 179 190 207
 0 +.025 .05 0 0 1 0 0 0 1 14 179 27 208 ?185 174 178 4 199 +0 0 185 174 20 81 1
 208 274 191 179 209 0 205 193 210 80 255 1 191 0 211 8001 0 0 0 0 3 5 0 0 0 FFF
FTFTFFFFFFF2 81 1 209 273 212 179 213 208 214 215 216 81 1 205 272 191 174 214 0
 202 208 217 81 1 193 276 191 185 215 0 208 189 218 83 255 3 210 1 .6 0 81 1 215
 275 212 185 219 193 209 192 220 83 3 218 1 .6 0 80 1 212 221 222 8015 0 0 0 0 3
 5 0 0 0 FFFFTFFFFFFFFF2 81 1 219 93 108 185 0 215 223 224 225 81 1 192 277 212
 188 223 189 215 226 227 83 1 220 0 81 1 223 92 108 188 0 192 228 219 229 81 1 2
26 279 212 94 230 194 192 231 232 83 1 227 0 81 1 230 265 108 94 0 226 233 234 2
35 81 1 194 280 191 94 226 0 189 236 237 81 1 231 281 212 196 234 236 226 238 23
9 83 1 232 0 14 196 168 236 ?240 94 241 4 242 +0 0 240 94 20 81 1 234 266 108 19
6 0 231 230 0 243 81 1 236 282 191 196 231 0 194 244 245 81 1 238 283 212 240 24
6 244 231 247 248 83 1 239 0 14 240 172 244 ?82 196 26 4 249 +0 0 82 196 20 81 1
 246 262 108 240 0 238 250 251 252 81 1 244 284 191 240 238 0 236 253 254 81 1 2
47 285 212 82 251 253 238 255 256 83 1 248 0 14 82 176 253 ?103 240 76 4 257 +0
 0 103 240 20 81 1 251 263 108 82 0 247 246 233 258 81 1 253 286 191 82 247 0 24
4 259 260 81 1 255 287 212 103 233 259 247 0 261 83 1 256 0 14 103 180 259 ?0 82
 86 4 262 -0 0 0 82 20 81 1 233 264 108 103 0 255 251 230 263 81 1 259 288 191 1
03 255 0 253 0 264 83 1 261 0 83 3 264 1 .6 0 80 1 108 265 266 9000 1 1 1 1 1 1
 1 1 0 FFFFTFTFFFFFFF3 84 255 32 263 7ac7ba4a83628a701df543b7906bf1a879 255 15 2
66 UGS/ObjectState50 262 195 0 103 0 257 0 +0 0 .01 0 0 -1 -1 0 0 50 257 193 0 8
2 262 249 0 +.04 .01 .01 1156482317317872e-30 1 0 -1 1156482317317872e-30 0 50 2
49 192 0 240 257 242 0 +.04 .04 .01 -1 1156482317317872e-30 0 -1156482317317872e
-30 -1 0 50 242 191 0 196 249 197 0 +.01 .04 .01 -1156482317317872e-30 -1 0 1 -1
156482317317872e-30 0 50 197 190 0 94 242 198 0 +.01 .01 .01 1 -1214306433183764
e-30 0 1214306433183764e-30 1 0 50 198 37 0 185 197 190 0 +.025 .025 0 0 0 -1 -1
 0 0 83 3 260 1 .6 0 84 32 258 a68c5b8bb1092f84b1997a19b20eb70983 3 254 1 .6 0 8
1 1 250 261 108 15 0 201 131 246 267 84 32 252 ab310ff54a864c57dd5c372fa9c1b36c8
1 1 201 267 212 15 250 200 0 204 268 81 1 131 260 108 130 0 0 129 250 269 84 32
 267 4f0dd84d746cb9074c72a8246f6fb88c81 1 129 259 108 127 0 0 121 131 270 84 32
 269 5f39be1699e0b29103856164cdcc1ede81 1 121 258 108 119 0 0 126 129 271 84 32
 270 093ad0dec5ff67f7482538d0e28ab2b581 1 126 257 108 85 0 0 123 121 272 84 32 2
71 4b79dc9d2c4161e3a6aad5026619781881 1 123 256 108 30 0 0 111 126 273 84 32 272
 8f3aa5654043ed357c5a992021f75b1081 1 111 255 108 104 0 0 113 123 274 84 32 273
 2c5380334af43015a5498a6b669e35ae81 1 113 254 108 106 0 0 116 111 275 84 32 274
 c80c854c7c250ef4a81c8170bb1d138681 1 116 253 108 90 0 0 89 113 276 84 32 275 3f
b65a754e1b07e61ea1b86617ddc2ad81 1 89 252 108 79 0 0 101 116 277 84 32 276 42ef0
8786afc2be754703e72853278f781 1 101 251 108 83 0 0 105 89 278 84 32 277 7cc967fc
0ae57d7ecf2198dc586bb89c84 32 278 f9eb367ffc44e6a2237ae67089f27c5e81 1 204 269 2
12 186 228 202 201 214 279 83 1 268 0 81 1 228 91 108 186 0 204 213 223 280 81 1
 214 271 212 174 224 205 204 209 281 83 1 279 0 81 1 224 94 108 174 0 214 219 10
9 282 83 1 281 0 81 1 109 249 108 99 0 0 224 105 283 84 32 282 5518fce153d5c50b6
5c435c849e7eb5484 32 283 5a2a41620eeb11e11fe7896ab040aaca81 1 213 90 108 179 0 2
09 135 228 284 84 32 280 d68a854763d31bad7289c8ecfdfe484581 1 135 88 108 132 0 0
 169 213 285 84 32 284 a2798fd04359012e6d553e571e57540481 1 169 87 108 168 0 0 1
40 135 286 84 32 285 d0e7b37810d6ef72c81a96f0fd42488281 1 140 86 108 138 0 0 145
 169 287 84 32 286 c793173c8276dc8192833eb17b726bc181 1 145 85 108 143 0 0 148 1
40 288 84 32 287 0c9f529d1e5c7a895a0d0588af1cbd0c81 1 148 84 108 137 0 0 151 145
 289 84 32 288 39c55b5aea2b00d969fccab16c59b4fa81 1 151 83 108 142 0 0 170 148 2
90 84 32 289 0aeb7249cfe117dbfc2624be2b65514d84 32 290 18bf3bc117ea600acbdbadf4d
ea3ffa315 26 175 0 24 240 0 83 3 245 1 .6 0 84 32 243 beee9407a99e0d6f441766986f
ed695815 241 171 0 63 196 0 17 63 0 241 97 31 61 122 119 0 95 -17 97 0 241 71 63
 72 95 130 0 0 +17 31 0 241 63 71 10 27 127 0 122 -17 122 0 177 29 98 10 63 119
 0 0 +17 95 0 92 84 93 61 97 130 0 98 -17 98 0 177 122 100 61 84 99 0 0 +15 177
 99 0 100 15 0 17 100 0 177 98 29 64 81 106 0 0 +17 29 0 177 100 122 58 24 30 0
 0 +17 81 0 76 77 66 58 100 106 0 29 -17 71 0 241 31 97 69 74 104 0 27 -17 27 0
 26 68 24 69 31 127 0 87 +17 68 0 26 28 27 57 87 90 0 77 -17 87 0 86 74 78 69 68
 90 0 0 +17 28 0 26 24 68 58 77 85 0 81 -83 3 237 1 .6 0 84 32 235 21c8aea367aaf
3c6ba80f29e5302e38b84 32 229 c3c40f00693145860b9ddd16d4513a6f84 32 225 016254faf
22a5542faf69d56bb3b426479 21 222 SDL/TYSA_TRANSLUCENCY83 3 217 1 .6 0 83 1 216 0
 79 15 211 SDL/TYSA_COLOUR83 3 206 1 .6 0 83 3 203 1 .6 0 83 3 195 1 .6 0 17 36
 0 175 176 37 44 22 9 0 167 -81 1 154 81 108 152 0 0 166 170 291 84 32 171 cb220
3d49e33e79978586cd2e5b6871d81 1 166 80 108 164 0 0 158 154 292 84 32 291 48bf0a2
f077d41e0edeb1bdb63beaddf81 1 158 79 108 156 0 0 162 166 293 84 32 292 39df06711
405ee6b1d6ddd4de9c32f4c81 1 162 78 108 160 0 0 21 158 294 84 32 293 e2fd299efd67
3fc2befbd338ef058c5881 1 21 77 108 9 0 0 0 162 295 84 32 294 310843e390df7687949
6bbae6dd01b2c84 32 295 9ede838a10132658493bce6a5182ce1884 32 110 8471433c66e352e
d492094e4503781fa19 16 5 0 1 0 8 4 S0 74 4 CI16 index_map_offset0 0 1 dCCZ20 14
 5 0 0 234 12 255 259 2 0 0 0 0 0 0 0 0 0 0 0 0 0 0 0 81 2 12 248 296 1 0 2 0 0
 297 298 80 2 296 299 300 8004 0 0 0 0 3 5 0 0 0 FFTFFFFFFFFFFF2 3 83 1 297 7830
.64 84 8 298 Kg/Cu M 79 16 300 SDL/TYSA_DENSITY80 1 11 301 302 9000 0 0 0 0 3 5
 0 0 0 FFTFFFFFFFFFFF1 82 255 1 13 78 79 24 302 UG2/BODY_COLOR_ATTRIBUTE1 0 
