**ABCDEFGHIJKLMNOPQRSTUVWXYZabcdefghijklmnopqrstuvwxyz**************************
**PARASOLID !"#$%&'()*+,-./:;<=>?@[\]^_`{|}~0123456789**************************
**PART1;
MC=x64/Windows NT;
MC_MODEL=genuineintel family 6 model 14 stepping 12, intel(r) core(tm) i7-9700k cpu @ 3.60ghz;
MC_ID=desktop-ae50iec;
OS=windows nt (x64);
OS_RELEASE=6.3 windows 10 education (build 17763) ;
FRU=mdc_ugii_v7.0_djl_can_vrh;
APPL=unigraphics;
SITE=unknown;
USER=CC;
FORMAT=text;
GUISE=transmit;
KEY=cup_a_10_h_0.5_b_0.2;
FILE=C:\Users\CC\Desktop\cup\cup_a_10_h_0.5_b_0.2.x_t;
DATE=24-may-2019;
**PART2;
SCH=SCH_2700178_26105;
USFLD_SIZE=0;
**PART3;
**END_OF_HEADER*****************************************************************
T51 : TRANSMIT FILE created by modeller version 270017823 SCH_2700178_26105_1300
6196 0 12 30 CCCCCCCCCCCCCDI5 owner1040 0 CCCCCCCCCA13 boundary_mesh1006 0 A16 i
ndex_map_offset0 0 1 dA9 index_map82 0 A17 node_id_index_map82 0 A20 schema_embe
dding_map82 0 A5 child12 0 A14 lowest_node_id0 0 1 dZ1 289 2 3 0 0 0 0 1e3 1e-8
 0 0 0 1 0 1 1 4 5 6 7 8 9 10 0 0 0 0 0 0 0 81 255 1 2 289 11 1 12 0 0 0 13 70 1
1 CI9 list_type0 0 1 uI10 notransmit0 0 1 lCCCDCCDI12 finger_index0 0 1 dI12 fin
ger_block1012 0 CZ3 0 4 T1 0 0 5 20 1 14 14 13 255 4 3 0 1 0 15 0 0 16 0 50 255
 5 54 0 15 17 0 0 +.05 .05 .05 0 0 1 1 0 0 30 255 6 62 0 9 18 0 0 +.05 0 .05 -1
 0 0 29 255 7 100 0 10 19 0 .08 .08 .05 19 8 CCCCCCCA5 owner12 0 Z8 1 0 1 16 0 2
0 V0 16 255 9 34 21 ?22 0 23 6 0 0 1 18 255 10 98 0 24 0 25 7 ?1 17 255 24 0 26
 27 28 10 29 30 0 31 +18 25 23 0 22 10 32 19 ?1 17 22 0 33 34 35 25 36 9 0 37 +1
8 32 21 0 38 25 39 40 ?1 29 19 58 0 25 40 7 0 0 .05 29 40 57 0 32 41 19 0 .1 .05
 29 41 56 0 39 42 40 .1 .1 .05 18 39 19 0 43 32 44 41 ?1 29 42 55 0 44 45 41 .1
 0 .05 18 44 17 0 36 39 46 42 ?1 29 45 41 0 47 48 42 0 0 0 18 47 11 0 34 49 50 4
5 ?1 29 48 40 0 49 51 45 0 .1 0 18 49 13 0 52 46 47 48 ?1 29 51 39 0 46 53 48 .1
 .1 0 18 46 15 0 54 44 49 51 ?1 29 53 38 0 50 55 51 .1 0 0 18 50 10 0 56 47 57 5
3 ?1 29 55 209 0 58 59 53 .08 .02 .05 18 58 159 0 28 60 61 55 ?1 29 59 210 0 61
 62 55 .02 .02 .05 18 61 157 0 63 58 64 59 ?1 29 62 211 0 64 65 59 .02 .08 .05 1
8 64 163 0 66 61 0 62 ?1 29 65 212 0 57 67 62 .08 .08 .02 18 57 162 0 27 50 68 6
5 ?1 29 67 213 0 68 69 65 .08 .02 .02 18 68 160 0 70 57 71 67 ?1 29 69 214 0 71
 72 67 .02 .02 .02 18 71 158 0 73 68 60 69 ?1 29 72 215 0 60 0 69 .02 .08 .02 18
 60 156 0 74 71 58 72 ?1 17 74 0 75 76 77 60 66 78 0 79 +15 255 75 179 0 77 80 0
 17 76 0 75 31 74 57 79 81 0 0 +17 77 0 75 74 31 64 82 83 0 84 +17 66 0 85 86 87
 64 74 78 0 77 -16 78 138 88 ?74 89 81 90 0 0 1 17 79 0 91 92 93 60 76 81 0 87 -
15 91 183 0 92 94 0 17 92 0 91 95 79 71 87 96 0 0 -17 93 0 91 79 95 57 97 98 0 7
6 -16 81 136 99 ?76 78 98 100 0 0 1 17 87 0 85 66 73 60 92 96 0 0 +15 85 167 0 8
6 101 0 17 73 0 85 87 86 71 63 102 0 103 +16 96 124 104 ?87 105 83 106 0 0 1 81
 1 104 257 107 96 0 0 108 88 109 16 105 128 110 ?103 98 96 111 0 0 1 16 83 152 1
12 ?77 96 30 113 0 0 1 30 106 207 0 96 0 111 0 -.02 .08 .02 -1214306433183764e-3
0 -1 0 30 111 206 0 105 106 114 0 -.02 .02 .02 1 -1156482317317872e-30 0 30 114
 205 0 98 111 100 0 -.08 .02 .02 1156482317317872e-30 1 0 16 98 132 115 ?97 81 1
05 114 0 0 1 30 100 204 0 81 114 116 0 -.08 .08 .02 -1 1156482317317872e-30 0 30
 116 203 0 117 100 118 0 +.02 .08 .05 -1214306433183764e-30 -1 0 16 117 140 119
 ?86 120 0 116 0 0 1 30 118 202 0 120 116 121 0 +.02 .02 .05 1 -1156482317317872
e-30 0 16 120 144 122 ?123 30 117 118 0 0 1 30 121 201 0 30 118 113 0 +.08 .02 .
05 1156482317317872e-30 1 0 16 30 148 124 ?24 83 120 121 0 0 1 30 113 200 0 83 1
21 125 0 +.08 .08 .05 -1 1156482317317872e-30 0 30 125 199 0 89 113 126 0 -.08 .
08 .02 0 0 1 16 89 134 127 ?27 128 78 125 0 0 1 30 126 198 0 128 125 129 0 -.08
 .02 .02 0 0 1 16 128 130 130 ?70 102 89 126 0 0 1 30 129 197 0 102 126 90 0 -.0
2 .02 .02 0 0 1 16 102 126 108 ?73 131 128 129 0 0 1 30 90 196 0 78 129 132 0 -.
02 .08 .02 0 0 1 30 132 42 0 131 90 133 0 +.05 0 0 1 0 0 16 131 12 134 ?135 136
 102 132 0 0 1 30 133 43 0 137 132 138 0 +.1 .05 0 0 1 0 16 137 6 139 ?140 141 1
42 133 0 0 1 30 138 44 0 142 133 143 0 +.05 .1 0 -1 0 0 16 142 16 144 ?145 137 1
36 138 0 0 1 30 143 45 0 136 138 146 0 +0 .05 0 0 -1 0 16 136 14 147 ?148 142 13
1 143 0 0 1 30 146 50 0 141 143 149 0 +.1 0 0 0 0 1 16 141 18 150 ?35 151 137 14
6 0 0 1 30 149 51 0 151 146 152 0 +.1 .1 0 0 0 1 16 151 20 153 ?154 155 141 149
 0 0 1 30 152 52 0 155 149 156 0 +0 .1 0 0 0 1 16 155 22 157 ?158 159 151 152 0
 0 1 30 156 53 0 159 152 160 0 +0 0 0 0 0 1 16 159 24 161 ?162 163 155 156 0 0 1
 30 160 59 0 163 156 164 0 +.1 .05 .05 0 -1 0 16 163 25 165 ?166 167 159 160 0 0
 1 30 164 60 0 167 160 18 0 +.05 .1 .05 1 0 0 16 167 28 168 ?43 23 163 164 0 0 1
 30 18 61 0 23 164 6 0 +0 .05 .05 0 1 0 16 23 31 169 ?38 9 167 18 0 0 1 81 1 169
 81 107 23 0 0 153 150 170 17 38 0 171 52 162 32 37 23 0 172 +15 171 29 0 162 17
3 0 17 52 0 171 148 38 49 158 155 0 145 -17 162 0 171 38 148 25 34 159 0 0 +17 3
7 0 174 36 172 25 38 23 0 162 -17 172 0 174 37 175 32 43 167 0 158 -15 174 35 0
 36 15 0 17 175 0 174 172 36 39 166 163 0 154 -17 43 0 176 54 158 39 172 167 0 1
75 +17 158 0 176 43 145 32 52 155 0 0 +15 176 26 0 158 177 0 17 145 0 176 158 54
 49 178 142 0 179 +17 54 0 176 145 43 46 154 151 0 178 -17 178 0 180 181 179 46
 145 142 0 140 -17 179 0 180 178 182 49 148 136 0 0 -15 180 8 0 181 183 0 17 182
 0 180 179 181 47 135 131 0 0 -17 148 0 171 162 52 47 179 136 0 182 +17 181 0 18
0 182 178 50 140 137 0 0 -17 135 0 33 35 34 50 182 131 0 181 +15 33 32 0 35 184
 0 17 35 0 33 22 135 44 56 141 0 0 +17 34 0 33 135 22 47 162 159 0 148 -17 56 0
 185 140 166 50 35 141 0 135 -15 185 7 0 140 186 0 17 140 0 185 154 56 46 181 13
7 0 0 +17 166 0 185 56 154 44 175 163 0 35 +17 154 0 185 166 140 39 54 151 0 0 +
14 255 186 2 187 ?101 183 185 4 188 +0 0 101 183 20 81 1 187 278 189 186 190 0 1
91 192 193 14 101 164 192 ?194 186 85 4 195 -0 0 194 186 20 14 183 9 191 ?186 17
7 180 4 196 +0 0 186 177 20 50 188 46 0 186 196 197 0 +.1 .05 0 1 0 0 0 0 -1 13
 20 4 0 0 0 0 0 0 8 15 14 15 36 198 ?184 0 199 4 5 +0 0 184 0 20 81 1 198 268 18
9 15 200 0 0 201 202 14 184 33 201 ?173 15 33 4 17 +0 0 173 15 20 15 199 111 0 8
4 15 174 17 84 0 199 82 203 64 86 117 0 0 -17 82 0 199 29 84 10 77 83 0 0 -17 20
3 0 199 84 29 61 123 120 0 0 -17 86 0 85 73 66 61 84 117 0 203 +17 29 0 199 203
 82 58 24 30 0 0 -17 123 0 204 70 63 58 203 120 0 29 +15 204 171 0 123 194 0 17
 70 0 204 103 123 68 28 128 0 95 +17 63 0 204 123 103 61 73 102 0 86 -17 103 0 2
04 63 70 71 95 105 0 92 +17 95 0 91 93 92 68 103 105 0 97 -17 97 0 26 28 27 68 9
3 98 0 0 +15 26 175 0 24 205 0 17 28 0 26 24 97 58 70 128 0 123 -17 27 0 26 97 2
4 57 31 89 0 93 +17 31 0 75 77 76 10 27 89 0 82 -14 205 172 206 ?80 194 26 4 207
 -0 0 80 194 20 81 1 206 284 189 205 208 0 209 210 211 14 80 176 210 ?94 205 75
 4 212 -0 0 94 205 20 14 194 168 209 ?205 101 204 4 213 -0 0 205 101 20 50 207 1
92 0 205 212 213 0 +.08 .02 .02 1 -1156482317317872e-30 0 1156482317317872e-30 1
 0 50 212 193 0 80 214 207 0 +.08 .08 .02 1156482317317872e-30 1 0 -1 1156482317
317872e-30 0 50 213 191 0 194 207 195 0 +.02 .02 .02 -1156482317317872e-30 -1 0
 1 -1156482317317872e-30 0 50 195 190 0 101 213 196 0 +.02 .08 .02 -1 1214306433
183764e-30 0 -1214306433183764e-30 -1 0 50 196 37 0 183 195 188 0 +.05 .05 0 0 0
 -1 -1 0 0 50 214 195 0 94 0 212 0 +0 0 .02 0 0 1 1 0 0 14 94 180 215 ?0 80 91 4
 214 +0 0 0 80 20 81 1 215 288 189 94 216 0 210 0 217 80 255 1 189 0 218 8001 0
 0 0 0 3 5 0 0 0 FFFFTFTFFFFFFF2 81 1 216 287 219 94 220 215 221 0 222 81 1 210
 286 189 80 221 0 206 215 223 83 255 3 217 1 .6 0 81 1 221 285 219 80 224 210 20
8 216 225 83 3 223 1 .6 0 80 1 219 226 227 8015 0 0 0 0 3 5 0 0 0 FFFFTFFFFFFFFF
2 81 1 224 266 107 80 0 221 228 0 229 81 1 208 283 219 205 230 206 231 221 232 8
3 1 225 0 81 1 230 264 107 205 0 208 233 228 234 81 1 231 281 219 194 228 209 23
5 208 236 83 1 232 0 81 1 228 265 107 194 0 231 230 224 237 81 1 209 282 189 194
 231 0 192 206 238 81 1 235 279 219 101 233 192 190 231 239 83 1 236 0 81 1 233
 263 107 101 0 235 220 230 240 81 1 192 280 189 101 235 0 187 209 241 81 1 190 2
77 219 186 242 187 243 235 244 83 1 239 0 81 1 242 91 107 186 0 190 245 246 247
 81 1 243 275 219 183 246 191 248 190 249 83 1 244 0 81 1 246 92 107 183 0 243 2
42 250 251 81 1 191 276 189 183 243 0 252 187 253 81 1 248 273 219 177 254 252 2
55 243 256 83 1 249 0 14 177 27 252 ?183 173 176 4 197 +0 0 183 173 20 81 1 254
 89 107 177 0 248 134 245 257 81 1 252 274 189 177 248 0 258 191 259 81 1 255 27
1 219 173 250 258 260 248 261 83 1 256 0 14 173 30 258 ?177 184 171 4 262 +0 0 1
77 184 20 81 1 250 93 107 173 0 255 246 112 263 81 1 258 272 189 173 255 0 201 2
52 264 81 1 260 269 219 184 245 201 200 255 265 83 1 261 0 81 1 245 90 107 184 0
 260 254 242 266 81 1 201 270 189 184 260 0 198 258 267 81 1 200 267 219 15 268
 198 0 260 269 83 1 265 0 81 1 268 261 107 15 0 200 115 220 270 83 1 269 0 80 1
 107 271 272 9000 1 1 1 1 1 1 1 1 0 FFFFTFTFFFFFFF3 81 1 115 260 107 98 0 0 99 2
68 273 81 1 220 262 107 94 0 216 268 233 274 84 255 32 270 1b15a1c34d48093c2e159
e4999a7499d84 32 274 597e309156b96544be0c05964e0e705a81 1 99 259 107 81 0 0 88 1
15 275 84 32 273 af5b746b889493fa7bd859bd076a90e081 1 88 258 107 78 0 0 104 99 2
76 84 32 275 a075955ef89f5970051734e3c3993bd284 32 276 7fbeba9bce330a566b1c1ce55
8525d9b79 255 15 272 UGS/ObjectState83 3 267 1 .6 0 84 32 266 72676973e42eab7b0e
e6637873371ff083 3 264 1 .6 0 81 1 112 249 107 83 0 0 250 110 277 84 32 263 063f
b4425787d091a3c75945c98f8da481 1 110 250 107 105 0 0 112 124 278 84 32 277 8c869
20899f32ae526049430952b8d5281 1 124 251 107 30 0 0 110 127 279 84 32 278 a3d9af8
bb1bc758304ada38148651cb581 1 127 252 107 89 0 0 124 119 280 84 32 279 c80ade5b8
31c50488404e48cbaa3169281 1 119 253 107 117 0 0 127 122 281 84 32 280 a8964a3ffe
757abd886ebcfb1e3f552481 1 122 254 107 120 0 0 119 130 282 84 32 281 f083231261b
ab90f6fac509fce80181381 1 130 255 107 128 0 0 122 108 283 84 32 282 76ce893b9c74
42023f5ac1c90d1dba7881 1 108 256 107 102 0 0 130 104 284 84 32 283 5407624960c76
d2307d4b6b37e47247384 32 284 b8acb51c615f6fc92b37e8fe4fe0a58c50 262 48 0 173 197
 17 0 +0 .05 0 -1 0 0 0 0 1 50 197 47 0 177 188 262 0 +.05 .1 0 0 1 0 0 0 1 50 1
7 49 0 184 262 5 0 +.05 0 0 0 -1 0 0 0 -1 83 3 259 1 .6 0 81 1 134 87 107 131 0
 0 168 254 285 84 32 257 9917452596f1ce59dc8d048dff09bc7f81 1 168 86 107 167 0 0
 139 134 286 84 32 285 5c237e6a1e718bbe43a4aded3e02ffc781 1 139 85 107 137 0 0 1
44 168 287 84 32 286 ef12df433d31f5a4e3b974d739d1c99c81 1 144 84 107 142 0 0 147
 139 288 84 32 287 6189c61cda697e6072cdf1c744641d7c81 1 147 83 107 136 0 0 150 1
44 289 84 32 288 3162244298563e960122dd39e2c383b381 1 150 82 107 141 0 0 169 147
 290 84 32 289 3b26d098e9dfb3661421cda45383e6e684 32 290 37a9e5c9816aa54bd11114a
edaa64cfc83 3 253 1 .6 0 84 32 251 6745f8ac16731013aaae9caac8192e2284 32 247 ea8
4ec0a92b1a1124cbed2320a33161683 3 241 1 .6 0 84 32 240 c3cbcb41083bfd2bad51ab0ea
fddacce83 3 238 1 .6 0 84 32 237 889fa2c94b10957921f49ff71af7310f84 32 234 58a71
05d51939e20b4d134d34870d0b784 32 229 8c9464ac2fcda835db3596a6c363fe5279 21 227 S
DL/TYSA_TRANSLUCENCY83 1 222 0 79 15 218 SDL/TYSA_COLOUR83 3 211 1 .6 0 83 3 202
 1 .6 0 83 3 193 1 .6 0 17 36 0 174 175 37 44 22 9 0 166 -81 1 153 80 107 151 0
 0 165 169 291 84 32 170 a0476dcf37d1367cf75b69e7128a69e281 1 165 79 107 163 0 0
 157 153 292 84 32 291 652fe4323a49e3b84f6f484e03daced981 1 157 78 107 155 0 0 1
61 165 293 84 32 292 9804aaf4e396affa747957eae6e2bfd281 1 161 77 107 159 0 0 21
 157 294 84 32 293 ed4fb5a310a79b6060966de8cd1a703281 1 21 76 107 9 0 0 0 161 29
5 84 32 294 b59973dba0ca157524b480e7531edcbd84 32 295 ea450a653c595d604c2fedfe5d
ff0acd84 32 109 4df460dbbfb152948b663869938c6c7719 16 5 0 1 0 8 4 S0 74 4 CI16 i
ndex_map_offset0 0 1 dCCZ20 14 5 0 0 224 12 216 215 2 0 0 0 0 0 0 0 0 0 0 0 0 0
 0 0 81 2 12 248 296 1 0 2 0 0 297 298 80 2 296 299 300 8004 0 0 0 0 3 5 0 0 0 F
FTFFFFFFFFFFF2 3 83 1 297 7830.64 84 8 298 Kg/Cu M 79 16 300 SDL/TYSA_DENSITY80
 1 11 301 302 9000 0 0 0 0 3 5 0 0 0 FFTFFFFFFFFFFF1 82 255 1 13 78 79 24 302 UG
2/BODY_COLOR_ATTRIBUTE1 0 
