**ABCDEFGHIJKLMNOPQRSTUVWXYZabcdefghijklmnopqrstuvwxyz**************************
**PARASOLID !"#$%&'()*+,-./:;<=>?@[\]^_`{|}~0123456789**************************
**PART1;
MC=x64/Windows NT;
MC_MODEL=genuineintel family 6 model 14 stepping 12, intel(r) core(tm) i7-9700k cpu @ 3.60ghz;
MC_ID=desktop-ae50iec;
OS=windows nt (x64);
OS_RELEASE=6.3 windows 10 education (build 17763) ;
FRU=mdc_ugii_v7.0_djl_can_vrh;
APPL=unigraphics;
SITE=unknown;
USER=CC;
FORMAT=text;
GUISE=transmit;
KEY=cup_a_5_h_2_b_0.1;
FILE=C:\Users\CC\Desktop\cup\cup_a_5_h_2_b_0.1.x_t;
DATE=24-may-2019;
**PART2;
SCH=SCH_2700178_26105;
USFLD_SIZE=0;
**PART3;
**END_OF_HEADER*****************************************************************
T51 : TRANSMIT FILE created by modeller version 270017823 SCH_2700178_26105_1300
6196 0 12 30 CCCCCCCCCCCCCDI5 owner1040 0 CCCCCCCCCA13 boundary_mesh1006 0 A16 i
ndex_map_offset0 0 1 dA9 index_map82 0 A17 node_id_index_map82 0 A20 schema_embe
dding_map82 0 A5 child12 0 A14 lowest_node_id0 0 1 dZ1 494 2 3 0 0 0 0 1e3 1e-8
 0 0 0 1 0 1 1 4 5 6 7 8 9 10 0 0 0 0 0 0 0 81 255 1 2 494 11 1 12 0 0 0 13 70 1
1 CI9 list_type0 0 1 uI10 notransmit0 0 1 lCCCDCCDI12 finger_index0 0 1 dI12 fin
ger_block1012 0 CZ3 0 4 T1 0 0 5 20 1 14 14 13 255 4 3 0 1 0 15 0 0 16 0 50 255
 5 54 0 15 17 0 0 +.025 .025 .1 0 0 1 1 0 0 30 255 6 62 0 9 18 0 0 +.025 0 .1 -1
 0 0 29 255 7 255 0 10 19 0 .045 .00500000000000008 .1 19 8 CCCCCCCA5 owner12 0
 Z8 1 0 1 16 0 20 V0 16 255 9 34 21 ?22 0 23 6 0 0 1 18 255 10 253 0 24 0 25 7 ?
1 17 255 24 0 26 27 28 10 29 30 0 31 -18 25 23 0 22 10 32 19 ?1 17 22 0 33 34 35
 25 36 9 0 37 +18 32 21 0 38 25 39 40 ?1 29 19 58 0 25 40 7 0 0 .1 29 40 57 0 32
 41 19 0 .05 .1 29 41 56 0 39 42 40 .05 .05 .1 18 39 19 0 43 32 44 41 ?1 29 42 5
5 0 44 45 41 .05 0 .1 18 44 17 0 36 39 46 42 ?1 29 45 41 0 47 48 42 0 0 0 18 47
 11 0 34 49 50 45 ?1 29 48 40 0 49 51 45 0 .05 0 18 49 13 0 52 46 47 48 ?1 29 51
 39 0 46 53 48 .05 .05 0 18 46 15 0 54 44 49 51 ?1 29 53 38 0 50 55 51 .05 0 0 1
8 50 10 0 56 47 57 53 ?1 29 55 393 0 58 59 53 .005 .005 .1 18 58 331 0 28 60 61
 55 ?1 29 59 395 0 61 62 55 .045 .045 .1 18 61 339 0 63 58 64 59 ?1 29 62 396 0
 64 65 59 .005 .045 .1 18 64 332 0 66 61 0 62 ?1 29 65 397 0 57 67 62 .005 .005
 .005 18 57 334 0 68 50 69 65 ?1 29 67 398 0 69 70 65 .045 .00500000000000008 .0
05 18 69 333 0 71 57 72 67 ?1 29 70 399 0 72 73 67 .045 .045 .005 18 72 330 0 74
 69 60 70 ?1 29 73 400 0 60 0 70 .005 .045 .005 18 60 335 0 75 72 58 73 ?1 17 75
 0 76 66 77 60 78 79 0 80 -15 255 76 359 0 81 82 0 17 66 0 76 81 75 64 80 83 0 8
4 -17 77 0 76 75 81 57 28 85 0 78 +17 78 0 86 87 88 57 75 79 0 0 +16 79 314 89 ?
78 83 90 91 0 0 1 17 80 0 92 93 84 60 66 83 0 88 +15 92 347 0 84 94 0 17 93 0 92
 95 80 72 88 96 0 97 -17 84 0 92 80 95 64 98 99 0 100 -16 83 288 101 ?80 85 79 1
02 0 0 1 17 88 0 86 78 74 60 93 96 0 0 +15 86 363 0 88 103 0 17 74 0 86 88 87 72
 71 104 0 93 +16 96 308 105 ?88 104 106 107 0 0 1 81 1 105 456 108 96 0 0 109 10
1 110 16 104 310 111 ?74 90 96 112 0 0 1 16 106 302 113 ?100 96 30 114 0 0 1 30
 107 388 0 96 0 112 0 -.005 .045 .005 1 -1214306433183764e-30 0 30 112 387 0 104
 107 115 0 -.045 .045 .005 -1040834085586084e-30 -1 0 30 115 386 0 90 112 91 0 -
.045 .00499999999999991 .005 -1 1062518129035794e-30 0 16 90 312 116 ?87 79 104
 115 0 0 1 30 91 385 0 79 115 117 0 -.00499999999999993 .005 .005 10625181290357
94e-30 1 0 30 117 384 0 99 91 118 0 +.005 .045 .1 1 -1214306433183764e-30 0 16 9
9 284 119 ?98 120 0 117 0 0 1 30 118 383 0 120 117 121 0 +.045 .045 .1 -10408340
85586084e-30 -1 0 16 120 290 122 ?123 30 99 118 0 0 1 30 121 382 0 30 118 114 0
 +.045 .00499999999999991 .1 -1 1062518129035794e-30 0 16 30 296 124 ?29 106 120
 121 0 0 1 30 114 381 0 106 121 125 0 +.00499999999999993 .005 .1 10625181290357
94e-30 1 0 30 125 380 0 85 114 126 0 -.005 .005 .005 0 0 1 16 85 306 127 ?77 128
 83 125 0 0 1 30 126 379 0 128 125 129 0 -.045 .00500000000000008 .005 0 0 1 16
 128 300 109 ?27 130 85 126 0 0 1 30 129 378 0 130 126 102 0 -.045 .045 .005 0 0
 1 16 130 294 131 ?97 132 128 129 0 0 1 30 102 377 0 83 129 133 0 -.005 .045 .00
5 0 0 1 30 133 42 0 132 102 134 0 +.025 0 0 1 0 0 16 132 12 135 ?136 137 130 133
 0 0 1 30 134 43 0 138 133 139 0 +.05 .025 0 0 1 0 16 138 6 140 ?141 142 143 134
 0 0 1 30 139 44 0 143 134 144 0 +.025 .05 0 -1 0 0 16 143 16 145 ?146 138 137 1
39 0 0 1 30 144 45 0 137 139 147 0 +0 .025 0 0 -1 0 16 137 14 148 ?149 143 132 1
44 0 0 1 30 147 50 0 142 144 150 0 +.05 0 0 0 0 1 16 142 18 151 ?35 152 138 147
 0 0 1 30 150 51 0 152 147 153 0 +.05 .05 0 0 0 1 16 152 20 154 ?155 156 142 150
 0 0 1 30 153 52 0 156 150 157 0 +0 .05 0 0 0 1 16 156 22 158 ?159 160 152 153 0
 0 1 30 157 53 0 160 153 161 0 +0 0 0 0 0 1 16 160 24 162 ?163 164 156 157 0 0 1
 30 161 59 0 164 157 165 0 +.05 .025 .1 0 -1 0 16 164 25 166 ?167 168 160 161 0
 0 1 30 165 60 0 168 161 18 0 +.025 .05 .1 1 0 0 16 168 28 169 ?43 23 164 165 0
 0 1 30 18 61 0 23 165 6 0 +0 .025 .1 0 1 0 16 23 31 170 ?38 9 168 18 0 0 1 81 1
 170 442 108 23 0 0 154 151 171 17 38 0 172 52 163 32 37 23 0 173 +15 172 29 0 1
63 174 0 17 52 0 172 149 38 49 159 156 0 146 -17 163 0 172 38 149 25 34 160 0 0
 +17 37 0 175 36 173 25 38 23 0 163 -17 173 0 175 37 176 32 43 168 0 159 -15 175
 35 0 36 15 177 17 176 0 175 173 36 39 167 164 0 155 -17 43 0 178 54 159 39 173
 168 0 176 +17 159 0 178 43 146 32 52 156 0 0 +15 178 26 0 159 179 0 17 146 0 17
8 159 54 49 180 143 0 181 +17 54 0 178 146 43 46 155 152 0 180 -17 180 0 182 183
 181 46 146 143 0 141 -17 181 0 182 180 184 49 149 137 0 0 -15 182 8 0 183 185 0
 17 184 0 182 181 183 47 136 132 0 0 -17 149 0 172 163 52 47 181 137 0 184 +17 1
83 0 182 184 180 50 141 138 0 0 -17 136 0 33 35 34 50 184 132 0 183 +15 33 32 0
 35 186 0 17 35 0 33 22 136 44 56 142 0 0 +17 34 0 33 136 22 47 163 160 0 149 -1
7 56 0 187 141 167 50 35 142 0 136 -15 187 7 0 141 188 0 17 141 0 187 155 56 46
 183 138 0 0 +17 167 0 187 56 155 44 176 164 0 35 +17 155 0 187 167 141 39 54 15
2 0 0 +14 255 188 2 189 ?94 185 187 4 190 +0 0 94 185 20 81 1 189 483 191 188 19
2 0 193 194 195 14 94 344 194 ?196 188 92 4 197 +0 0 196 188 20 14 185 9 193 ?18
8 179 182 4 198 +0 0 188 179 20 50 190 46 0 188 198 199 0 +.05 .025 0 1 0 0 0 0
 -1 13 20 4 0 0 0 0 0 0 8 15 14 15 36 200 ?186 0 175 4 5 +0 0 186 0 20 81 1 200
 473 191 15 201 0 0 202 203 14 186 33 202 ?174 15 33 4 17 +0 0 174 15 20 81 1 20
2 475 191 186 204 0 200 205 206 14 174 30 205 ?179 186 172 4 207 +0 0 179 186 20
 50 17 49 0 186 207 5 0 +.025 0 0 0 -1 0 0 0 -1 50 207 48 0 174 199 17 0 +0 .025
 0 -1 0 0 0 0 1 50 199 47 0 179 190 207 0 +.025 .05 0 0 1 0 0 0 1 14 179 27 208
 ?185 174 178 4 199 +0 0 185 174 20 81 1 208 479 191 179 209 0 205 193 210 80 25
5 1 191 0 211 8001 0 0 0 0 3 5 0 0 0 FFFFTFTFFFFFFF2 81 1 209 478 212 179 213 20
8 214 215 216 81 1 205 477 191 174 214 0 202 208 217 81 1 193 481 191 185 215 0
 208 189 218 83 255 3 210 1 .6 0 81 1 215 480 212 185 219 193 209 192 220 83 3 2
18 1 .6 0 80 1 212 221 222 8015 0 0 0 0 3 5 0 0 0 FFFFTFFFFFFFFF2 81 1 219 465 1
08 185 0 215 223 224 225 81 1 192 482 212 188 223 189 215 226 227 83 1 220 0 81
 1 223 464 108 188 0 192 228 219 229 81 1 226 484 212 94 230 194 192 231 232 83
 1 227 0 81 1 230 470 108 94 0 226 233 234 235 81 1 194 485 191 94 226 0 189 236
 237 81 1 231 486 212 196 238 236 226 239 240 83 1 232 0 14 196 348 236 ?241 94
 242 4 243 +0 0 241 94 20 81 1 238 468 108 196 0 231 244 233 245 81 1 236 487 19
1 196 231 0 194 246 247 81 1 239 488 212 241 234 246 231 248 249 83 1 240 0 14 2
41 352 246 ?82 196 26 4 250 +0 0 82 196 20 81 1 234 471 108 241 0 239 230 0 251
 81 1 246 489 191 241 239 0 236 252 253 81 1 248 490 212 82 233 252 239 254 255
 83 1 249 0 14 82 356 252 ?103 241 76 4 256 +0 0 103 241 20 81 1 233 469 108 82
 0 248 238 230 257 81 1 252 491 191 82 248 0 246 258 259 81 1 254 492 212 103 24
4 258 248 0 260 83 1 255 0 14 103 360 258 ?0 82 86 4 261 -0 0 0 82 20 81 1 244 4
67 108 103 0 254 224 238 262 81 1 258 493 191 103 254 0 252 0 263 83 1 260 0 83
 3 263 1 .6 0 80 1 108 264 265 9000 1 1 1 1 1 1 1 1 0 FFFFTFTFFFFFFF3 81 1 224 4
66 108 174 0 214 219 244 266 84 255 32 262 1053ad94b72396e71b2f1354e71b385881 1
 214 476 212 174 224 205 204 209 267 84 32 266 0a84068a0c017af9d5eba00cff32071e8
1 1 204 474 212 186 228 202 201 214 268 83 1 267 0 81 1 228 463 108 186 0 204 21
3 223 269 81 1 201 472 212 15 270 200 0 204 271 83 1 268 0 81 1 270 461 108 15 0
 201 113 213 272 83 1 271 0 81 1 113 460 108 106 0 0 116 270 273 81 1 213 462 10
8 179 0 209 270 228 274 84 32 272 368d950a31715b4536d429d20edf8dfd84 32 274 530d
6aaa60ac9238d1e42543ff8edcb481 1 116 459 108 90 0 0 119 113 275 84 32 273 367d1d
97ddb566f80547fbb6a213ac0e81 1 119 458 108 99 0 0 101 116 276 84 32 275 44ee9b6a
ddeda2e83338a0cd0ba5ec4c81 1 101 457 108 83 0 0 105 119 277 84 32 276 110360fc64
3cff000a579bbe24cf9e4384 32 277 4a0a2dcaea6a6ba19a52528bfcee4dd484 32 269 3c7756
0db0ee8057b079412f83e0485079 255 15 265 UGS/ObjectState50 261 376 0 103 0 256 0
 +0 0 .005 0 0 -1 -1 0 0 50 256 374 0 82 261 250 0 +.00499999999999993 .005 .005
 1 -1062518129035794e-30 0 1062518129035794e-30 1 0 50 250 373 0 241 256 243 0 +
.045 .00499999999999991 .005 1062518129035794e-30 1 0 -1 1062518129035794e-30 0
 50 243 372 0 196 250 197 0 +.045 .045 .005 -1 1040834085586084e-30 0 -104083408
5586084e-30 -1 0 50 197 371 0 94 243 198 0 +.005 .045 .005 -1214306433183766e-30
 -1 0 1 -1214306433183766e-30 0 50 198 37 0 185 197 190 0 +.025 .025 0 0 0 -1 -1
 0 0 83 3 259 1 .6 0 84 32 257 e9ff351fcb6077f302cab66569c0764a83 3 253 1 .6 0 8
4 32 251 1595c209bdece4dfbf57254356606e3b15 26 355 0 24 241 0 83 3 247 1 .6 0 84
 32 245 c7d11c7649e19640a9fd695a9c4d228615 242 351 0 63 196 0 17 63 0 242 97 31
 61 123 120 0 95 -17 97 0 242 71 63 72 95 130 0 0 +17 31 0 242 63 71 10 27 128 0
 123 -17 123 0 177 29 98 10 63 120 0 0 +17 95 0 92 84 93 61 97 130 0 98 -17 98 0
 177 123 100 61 84 99 0 0 +15 177 251 0 100 15 0 17 100 0 177 98 29 64 81 106 0
 0 +17 29 0 177 100 123 58 24 30 0 0 +17 81 0 76 77 66 58 100 106 0 29 -17 71 0
 242 31 97 69 74 104 0 27 -17 27 0 26 68 24 69 31 128 0 87 +17 68 0 26 28 27 57
 87 90 0 77 -17 87 0 86 74 78 69 68 90 0 0 +17 28 0 26 24 68 58 77 85 0 81 -83 3
 237 1 .6 0 84 32 235 854cb0ec1cfd20c867d266ae9039d87284 32 229 ac76c349b9a3b35b
9c6241ea662561aa84 32 225 016254faf22a5542faf69d56bb3b426479 21 222 SDL/TYSA_TRA
NSLUCENCY83 3 217 1 .6 0 83 1 216 0 79 15 211 SDL/TYSA_COLOUR83 3 206 1 .6 0 83
 3 203 1 .6 0 83 3 195 1 .6 0 17 36 0 175 176 37 44 22 9 0 167 -81 1 154 441 108
 152 0 0 166 170 278 81 1 151 443 108 142 0 0 170 148 279 84 32 171 6e3e960745af
6b1d6078066d0c909e8181 1 148 444 108 137 0 0 151 145 280 84 32 279 94d1e0456e831
df36353897cd2eb2d3c81 1 145 445 108 143 0 0 148 140 281 84 32 280 0aeb7249cfe117
dbfc2624be2b65514d81 1 140 446 108 138 0 0 145 169 282 84 32 281 39c55b5aea2b00d
969fccab16c59b4fa81 1 169 447 108 168 0 0 140 135 283 84 32 282 0c9f529d1e5c7a89
5a0d0588af1cbd0c81 1 135 448 108 132 0 0 169 124 284 84 32 283 6cede226cc8f2de67
589b6d83b91e08381 1 124 449 108 30 0 0 135 127 285 84 32 284 d0e7b37810d6ef72c81
a96f0fd42488281 1 127 450 108 85 0 0 124 131 286 84 32 285 1621d8a3f627d18c98752
7bea6f9ac7a81 1 131 451 108 130 0 0 127 89 287 84 32 286 a335e03f00f23f550febbbb
14a755c1c81 1 89 452 108 79 0 0 131 111 288 84 32 287 bdbb1882aa81ce2bc44f40d2a0
9cf34f81 1 111 453 108 104 0 0 89 122 289 84 32 288 59f7853aa0bfd1d0e0fc0cb2a2d0
ed2081 1 122 454 108 120 0 0 111 109 290 84 32 289 530adf94c079302b5c9a128b7c491
a3381 1 109 455 108 128 0 0 122 105 291 84 32 290 90e160f46de5ca2f8ecd59855044d1
f284 32 291 e24b449f3dd59876c3267efa26557fdf81 1 166 440 108 164 0 0 158 154 292
 84 32 278 3031c674db3251b107a2195f617e315a81 1 158 439 108 156 0 0 162 166 293
 84 32 292 c4ecfd82274b2524685fecf9a03575e581 1 162 438 108 160 0 0 21 158 294 8
4 32 293 1d1c6c3e5cb9fac39c7085b3623b752d81 1 21 437 108 9 0 0 0 162 295 84 32 2
94 f454c5c16f884779c02b69a118916e3484 32 295 b0c85ea8e5444180a29d8566dbc05bf884
 32 110 f6442c4682f68aa8fc343896de28423d19 16 5 0 1 0 8 4 S0 74 4 CI16 index_map
_offset0 0 1 dCCZ20 14 5 0 0 12 234 254 258 2 0 0 0 0 0 0 0 0 0 0 0 0 0 0 0 81 2
 12 436 296 1 0 2 0 0 297 298 80 2 296 299 300 8004 0 0 0 0 3 5 0 0 0 FFTFFFFFFF
FFFF2 3 83 1 297 7830.64 84 8 298 Kg/Cu M 79 16 300 SDL/TYSA_DENSITY80 1 11 301
 302 9000 0 0 0 0 3 5 0 0 0 FFTFFFFFFFFFFF1 82 255 1 13 78 79 24 302 UG2/BODY_CO
LOR_ATTRIBUTE1 0 
