**ABCDEFGHIJKLMNOPQRSTUVWXYZabcdefghijklmnopqrstuvwxyz**************************
**PARASOLID !"#$%&'()*+,-./:;<=>?@[\]^_`{|}~0123456789**************************
**PART1;
MC=x64/Windows NT;
MC_MODEL=genuineintel family 6 model 14 stepping 12, intel(r) core(tm) i7-9700k cpu @ 3.60ghz;
MC_ID=desktop-ae50iec;
OS=windows nt (x64);
OS_RELEASE=6.3 windows 10 education (build 17763) ;
FRU=mdc_ugii_v7.0_djl_can_vrh;
APPL=unigraphics;
SITE=unknown;
USER=CC;
FORMAT=text;
GUISE=transmit;
KEY=cup_a_10_h_1_b_0.2;
FILE=C:\Users\CC\Desktop\cup\cup_a_10_h_1_b_0.2.x_t;
DATE=24-may-2019;
**PART2;
SCH=SCH_2700178_26105;
USFLD_SIZE=0;
**PART3;
**END_OF_HEADER*****************************************************************
T51 : TRANSMIT FILE created by modeller version 270017823 SCH_2700178_26105_1300
6196 0 12 30 CCCCCCCCCCCCCDI5 owner1040 0 CCCCCCCCCA13 boundary_mesh1006 0 A16 i
ndex_map_offset0 0 1 dA9 index_map82 0 A17 node_id_index_map82 0 A20 schema_embe
dding_map82 0 A5 child12 0 A14 lowest_node_id0 0 1 dZ1 288 2 3 0 0 0 0 1e3 1e-8
 0 0 0 1 0 1 1 4 5 6 7 8 9 10 0 0 0 0 0 0 0 81 255 1 2 288 11 1 12 0 0 0 13 70 1
1 CI9 list_type0 0 1 uI10 notransmit0 0 1 lCCCDCCDI12 finger_index0 0 1 dI12 fin
ger_block1012 0 CZ3 0 4 T1 0 0 5 20 1 14 14 13 255 4 3 0 1 0 15 0 0 16 0 50 255
 5 54 0 15 17 0 0 +.05 .05 .1 0 0 1 1 0 0 30 255 6 62 0 9 18 0 0 +.05 0 .1 -1 0
 0 29 255 7 82 0 10 19 0 .08 .08 .1 19 8 CCCCCCCA5 owner12 0 Z8 1 0 1 16 0 20 V0
 16 255 9 34 21 ?22 0 23 6 0 0 1 18 255 10 80 0 24 0 25 7 ?1 17 255 24 0 26 27 2
8 10 29 30 0 31 +18 25 23 0 22 10 32 19 ?1 17 22 0 33 34 35 25 36 9 0 37 +18 32
 21 0 38 25 39 40 ?1 29 19 58 0 25 40 7 0 0 .1 29 40 57 0 32 41 19 0 .1 .1 29 41
 56 0 39 42 40 .1 .1 .1 18 39 19 0 43 32 44 41 ?1 29 42 55 0 44 45 41 .1 0 .1 18
 44 17 0 36 39 46 42 ?1 29 45 41 0 47 48 42 0 0 0 18 47 11 0 34 49 50 45 ?1 29 4
8 40 0 49 51 45 0 .1 0 18 49 13 0 52 46 47 48 ?1 29 51 39 0 46 53 48 .1 .1 0 18
 46 15 0 54 44 49 51 ?1 29 53 38 0 50 55 51 .1 0 0 18 50 10 0 56 47 57 53 ?1 29
 55 191 0 58 59 53 .08 .02 .1 18 58 141 0 28 60 61 55 ?1 29 59 192 0 61 62 55 .0
2 .02 .1 18 61 139 0 63 58 64 59 ?1 29 62 193 0 64 65 59 .02 .08 .1 18 64 145 0
 66 61 0 62 ?1 29 65 194 0 57 67 62 .08 .08 .02 18 57 144 0 27 50 68 65 ?1 29 67
 195 0 68 69 65 .08 .02 .02 18 68 142 0 70 57 71 67 ?1 29 69 196 0 71 72 67 .02
 .02 .02 18 71 140 0 73 68 60 69 ?1 29 72 197 0 60 0 69 .02 .08 .02 18 60 138 0
 74 71 58 72 ?1 17 74 0 75 76 77 60 66 78 0 79 +15 255 75 161 0 77 80 0 17 76 0
 75 31 74 57 79 81 0 0 +17 77 0 75 74 31 64 82 83 0 84 +17 66 0 85 86 87 64 74 7
8 0 77 -16 78 120 88 ?74 89 81 90 0 0 1 17 79 0 91 92 93 60 76 81 0 87 -15 91 16
5 0 92 94 0 17 92 0 91 95 79 71 87 96 0 0 -17 93 0 91 79 95 57 97 98 0 76 -16 81
 118 99 ?76 78 98 100 0 0 1 17 87 0 85 66 73 60 92 96 0 0 +15 85 149 0 86 101 0
 17 73 0 85 87 86 71 63 102 0 103 +16 96 106 104 ?87 105 83 106 0 0 1 81 1 104 2
51 107 96 0 0 108 88 109 16 105 110 110 ?103 98 96 111 0 0 1 16 83 134 112 ?77 9
6 30 113 0 0 1 30 106 189 0 96 0 111 0 -.02 .08 .02 -1214306433183764e-30 -1 0 3
0 111 188 0 105 106 114 0 -.02 .02 .02 1 -1156482317317872e-30 0 30 114 187 0 98
 111 100 0 -.08 .02 .02 1156482317317872e-30 1 0 16 98 114 115 ?97 81 105 114 0
 0 1 30 100 186 0 81 114 116 0 -.08 .08 .02 -1 1156482317317872e-30 0 30 116 185
 0 117 100 118 0 +.02 .08 .1 -1214306433183764e-30 -1 0 16 117 122 119 ?86 120 0
 116 0 0 1 30 118 184 0 120 116 121 0 +.02 .02 .1 1 -1156482317317872e-30 0 16 1
20 126 122 ?123 30 117 118 0 0 1 30 121 183 0 30 118 113 0 +.08 .02 .1 115648231
7317872e-30 1 0 16 30 130 124 ?24 83 120 121 0 0 1 30 113 182 0 83 121 125 0 +.0
8 .08 .1 -1 1156482317317872e-30 0 30 125 181 0 89 113 126 0 -.08 .08 .02 0 0 1
 16 89 116 127 ?27 128 78 125 0 0 1 30 126 180 0 128 125 129 0 -.08 .02 .02 0 0
 1 16 128 112 130 ?70 102 89 126 0 0 1 30 129 179 0 102 126 90 0 -.02 .02 .02 0
 0 1 16 102 108 108 ?73 131 128 129 0 0 1 30 90 178 0 78 129 132 0 -.02 .08 .02
 0 0 1 30 132 42 0 131 90 133 0 +.05 0 0 1 0 0 16 131 12 134 ?135 136 102 132 0
 0 1 30 133 43 0 137 132 138 0 +.1 .05 0 0 1 0 16 137 6 139 ?140 141 142 133 0 0
 1 30 138 44 0 142 133 143 0 +.05 .1 0 -1 0 0 16 142 16 144 ?145 137 136 138 0 0
 1 30 143 45 0 136 138 146 0 +0 .05 0 0 -1 0 16 136 14 147 ?148 142 131 143 0 0
 1 30 146 50 0 141 143 149 0 +.1 0 0 0 0 1 16 141 18 150 ?35 151 137 146 0 0 1 3
0 149 51 0 151 146 152 0 +.1 .1 0 0 0 1 16 151 20 153 ?154 155 141 149 0 0 1 30
 152 52 0 155 149 156 0 +0 .1 0 0 0 1 16 155 22 157 ?158 159 151 152 0 0 1 30 15
6 53 0 159 152 160 0 +0 0 0 0 0 1 16 159 24 161 ?162 163 155 156 0 0 1 30 160 59
 0 163 156 164 0 +.1 .05 .1 0 -1 0 16 163 25 165 ?166 167 159 160 0 0 1 30 164 6
0 0 167 160 18 0 +.05 .1 .1 1 0 0 16 167 28 168 ?43 23 163 164 0 0 1 30 18 61 0
 23 164 6 0 +0 .05 .1 0 1 0 16 23 31 169 ?38 9 167 18 0 0 1 81 1 169 236 107 23
 0 0 153 150 170 17 38 0 171 52 162 32 37 23 0 172 +15 171 29 0 162 173 0 17 52
 0 171 148 38 49 158 155 0 145 -17 162 0 171 38 148 25 34 159 0 0 +17 37 0 174 3
6 172 25 38 23 0 162 -17 172 0 174 37 175 32 43 167 0 158 -15 174 35 0 36 15 0 1
7 175 0 174 172 36 39 166 163 0 154 -17 43 0 176 54 158 39 172 167 0 175 +17 158
 0 176 43 145 32 52 155 0 0 +15 176 26 0 158 177 0 17 145 0 176 158 54 49 178 14
2 0 179 +17 54 0 176 145 43 46 154 151 0 178 -17 178 0 180 181 179 46 145 142 0
 140 -17 179 0 180 178 182 49 148 136 0 0 -15 180 8 0 181 183 0 17 182 0 180 179
 181 47 135 131 0 0 -17 148 0 171 162 52 47 179 136 0 182 +17 181 0 180 182 178
 50 140 137 0 0 -17 135 0 33 35 34 50 182 131 0 181 +15 33 32 0 35 184 0 17 35 0
 33 22 135 44 56 141 0 0 +17 34 0 33 135 22 47 162 159 0 148 -17 56 0 185 140 16
6 50 35 141 0 135 -15 185 7 0 140 186 0 17 140 0 185 154 56 46 181 137 0 0 +17 1
66 0 185 56 154 44 175 163 0 35 +17 154 0 185 166 140 39 54 151 0 0 +14 255 186
 2 187 ?101 183 185 4 188 +0 0 101 183 20 81 1 187 277 189 186 190 0 191 192 193
 14 101 146 192 ?194 186 85 4 195 -0 0 194 186 20 14 183 9 191 ?186 177 180 4 19
6 +0 0 186 177 20 50 188 46 0 186 196 197 0 +.1 .05 0 1 0 0 0 0 -1 13 20 4 0 0 0
 0 0 0 8 15 14 15 36 198 ?184 0 199 4 5 +0 0 184 0 20 81 1 198 267 189 15 200 0
 0 201 202 14 184 33 201 ?173 15 33 4 17 +0 0 173 15 20 15 199 93 0 84 15 174 17
 84 0 199 82 203 64 86 117 0 0 -17 82 0 199 29 84 10 77 83 0 0 -17 203 0 199 84
 29 61 123 120 0 0 -17 86 0 85 73 66 61 84 117 0 203 +17 29 0 199 203 82 58 24 3
0 0 0 -17 123 0 204 70 63 58 203 120 0 29 +15 204 153 0 123 194 0 17 70 0 204 10
3 123 68 28 128 0 95 +17 63 0 204 123 103 61 73 102 0 86 -17 103 0 204 63 70 71
 95 105 0 92 +17 95 0 91 93 92 68 103 105 0 97 -17 97 0 26 28 27 68 93 98 0 0 +1
5 26 157 0 24 205 0 17 28 0 26 24 97 58 70 128 0 123 -17 27 0 26 97 24 57 31 89
 0 93 +17 31 0 75 77 76 10 27 89 0 82 -14 205 154 206 ?80 194 26 4 207 -0 0 80 1
94 20 81 1 206 283 189 205 208 0 209 210 211 14 80 158 210 ?94 205 75 4 212 -0 0
 94 205 20 14 194 150 209 ?205 101 204 4 213 -0 0 205 101 20 50 207 174 0 205 21
2 213 0 +.08 .02 .02 1 -1156482317317872e-30 0 1156482317317872e-30 1 0 50 212 1
75 0 80 214 207 0 +.08 .08 .02 1156482317317872e-30 1 0 -1 1156482317317872e-30
 0 50 213 173 0 194 207 195 0 +.02 .02 .02 -1156482317317872e-30 -1 0 1 -1156482
317317872e-30 0 50 195 172 0 101 213 196 0 +.02 .08 .02 -1 1214306433183764e-30
 0 -1214306433183764e-30 -1 0 50 196 37 0 183 195 188 0 +.05 .05 0 0 0 -1 -1 0 0
 50 214 177 0 94 0 212 0 +0 0 .02 0 0 1 1 0 0 14 94 162 215 ?0 80 91 4 214 +0 0
 0 80 20 81 1 215 287 189 94 216 0 210 0 217 80 255 1 189 0 218 8001 0 0 0 0 3 5
 0 0 0 FFFFTFTFFFFFFF2 81 1 216 286 219 94 220 215 221 0 222 81 1 210 285 189 80
 221 0 206 215 223 83 255 3 217 1 .6 0 81 1 221 284 219 80 224 210 208 216 225 8
3 3 223 1 .6 0 80 1 219 226 227 8015 0 0 0 0 3 5 0 0 0 FFFFTFFFFFFFFF2 81 1 224
 265 107 80 0 221 228 0 229 81 1 208 282 219 205 230 206 231 221 232 83 1 225 0
 81 1 230 263 107 205 0 208 233 228 234 81 1 231 280 219 194 228 209 235 208 236
 83 1 232 0 81 1 228 264 107 194 0 231 230 224 237 81 1 209 281 189 194 231 0 19
2 206 238 81 1 235 278 219 101 233 192 190 231 239 83 1 236 0 81 1 233 262 107 1
01 0 235 220 230 240 81 1 192 279 189 101 235 0 187 209 241 81 1 190 276 219 186
 242 187 243 235 244 83 1 239 0 81 1 242 258 107 186 0 190 245 246 247 81 1 243
 274 219 183 246 191 248 190 249 83 1 244 0 81 1 246 259 107 183 0 243 242 250 2
51 81 1 191 275 189 183 243 0 252 187 253 81 1 248 272 219 177 254 252 255 243 2
56 83 1 249 0 14 177 27 252 ?183 173 176 4 197 +0 0 183 173 20 81 1 254 256 107
 177 0 248 257 245 258 81 1 252 273 189 177 248 0 259 191 260 81 1 255 270 219 1
73 250 259 261 248 262 83 1 256 0 14 173 30 259 ?177 184 171 4 263 +0 0 177 184
 20 81 1 250 260 107 173 0 255 246 220 264 81 1 259 271 189 173 255 0 201 252 26
5 81 1 261 268 219 184 245 201 200 255 266 83 1 262 0 81 1 245 257 107 184 0 261
 254 242 267 81 1 201 269 189 184 261 0 198 259 268 81 1 200 266 219 15 257 198
 0 261 269 83 1 266 0 81 1 257 255 107 15 0 200 115 254 270 83 1 269 0 80 1 107
 271 272 9000 1 1 1 1 1 1 1 1 0 FFFFTFTFFFFFFF3 81 1 115 254 107 98 0 0 99 257 2
73 84 255 32 270 05af8ae8fcf6130a405d86e0a86c8df981 1 99 253 107 81 0 0 88 115 2
74 84 32 273 af5b746b889493fa7bd859bd076a90e081 1 88 252 107 78 0 0 104 99 275 8
4 32 274 a075955ef89f5970051734e3c3993bd284 32 275 2ee7a7dc73f994c6d764d1c7800df
60379 255 15 272 UGS/ObjectState83 3 268 1 .6 0 84 32 267 625ba9aaebe79ef989cde5
7e828c372383 3 265 1 .6 0 81 1 220 261 107 94 0 216 250 233 276 84 32 264 5f1d11
f39599749a064e67601adbb24584 32 276 597e309156b96544be0c05964e0e705a50 263 48 0
 173 197 17 0 +0 .05 0 -1 0 0 0 0 1 50 197 47 0 177 188 263 0 +.05 .1 0 0 1 0 0
 0 1 50 17 49 0 184 263 5 0 +.05 0 0 0 -1 0 0 0 -1 83 3 260 1 .6 0 84 32 258 011
ab3fd1a5f9a5b56c4fcfd4150ab4583 3 253 1 .6 0 84 32 251 6745f8ac16731013aaae9caac
8192e2284 32 247 029dd5d1fe7d8e504a7affa56faa18dd83 3 241 1 .6 0 84 32 240 af649
1a7c3e66ec9e77ca0cc24496e5983 3 238 1 .6 0 84 32 237 8ccf0157c93462e43890e57c77a
aa34984 32 234 5fd6c0fa29b7bb04895b2f75b1b5a60284 32 229 1c5e02f6b50602d3173042a
399e54b6f79 21 227 SDL/TYSA_TRANSLUCENCY83 1 222 0 79 15 218 SDL/TYSA_COLOUR83 3
 211 1 .6 0 83 3 202 1 .6 0 83 3 193 1 .6 0 17 36 0 174 175 37 44 22 9 0 166 -81
 1 153 235 107 151 0 0 165 169 277 81 1 150 237 107 141 0 0 169 147 278 84 32 17
0 b2ac7708b5c263f5a04d767b73f8aaae81 1 147 238 107 136 0 0 150 144 279 84 32 278
 4e88fb17a4458988f1cfd2f805b8127981 1 144 239 107 142 0 0 147 139 280 84 32 279
 3b26d098e9dfb3661421cda45383e6e681 1 139 240 107 137 0 0 144 168 281 84 32 280
 3162244298563e960122dd39e2c383b381 1 168 241 107 167 0 0 139 134 282 84 32 281
 6189c61cda697e6072cdf1c744641d7c81 1 134 242 107 131 0 0 168 112 283 84 32 282
 5db9eca18ec20a33ad74a144b1c80fbb81 1 112 243 107 83 0 0 134 110 284 84 32 283 5
c237e6a1e718bbe43a4aded3e02ffc781 1 110 244 107 105 0 0 112 124 285 84 32 284 8e
db974526baaf3ed9c4d68c022037f981 1 124 245 107 30 0 0 110 127 286 84 32 285 a3d9
af8bb1bc758304ada38148651cb581 1 127 246 107 89 0 0 124 119 287 84 32 286 57d856
f3d5537f78398be1b731846ec081 1 119 247 107 117 0 0 127 122 288 84 32 287 f2da2a2
ad135c4b619125d367b2a7ef181 1 122 248 107 120 0 0 119 130 289 84 32 288 6a4276c2
b3dd052a3cfd212fec26bce281 1 130 249 107 128 0 0 122 108 290 84 32 289 1237ba670
e320ba36fd3bdd20b0aafd381 1 108 250 107 102 0 0 130 104 291 84 32 290 1813d3a812
c249fd4de77f269e7415d084 32 291 f8f48f2f2b1cf5e31fffdf8a34c02ce781 1 165 234 107
 163 0 0 157 153 292 84 32 277 66a28e3b89e4fced57e80ce94218376081 1 157 233 107
 155 0 0 161 165 293 84 32 292 0ef6a4db0c303526def98393796e127a81 1 161 232 107
 159 0 0 21 157 294 84 32 293 0e85408166dcbbfbf41951a430c270d181 1 21 231 107 9
 0 0 0 161 295 84 32 294 f454c5c16f884779c02b69a118916e3484 32 295 e2894ee7ab4f2
e481962c4c49c0cc58684 32 109 4df460dbbfb152948b663869938c6c7719 16 5 0 1 0 8 4 S
0 74 4 CI16 index_map_offset0 0 1 dCCZ20 14 5 0 0 12 224 216 215 2 0 0 0 0 0 0 0
 0 0 0 0 0 0 0 0 81 2 12 230 296 1 0 2 0 0 297 298 80 2 296 299 300 8004 0 0 0 0
 3 5 0 0 0 FFTFFFFFFFFFFF2 3 83 1 297 7830.64 84 8 298 Kg/Cu M 79 16 300 SDL/TYS
A_DENSITY80 1 11 301 302 9000 0 0 0 0 3 5 0 0 0 FFTFFFFFFFFFFF1 82 255 1 13 78 7
9 24 302 UG2/BODY_COLOR_ATTRIBUTE1 0 
