**ABCDEFGHIJKLMNOPQRSTUVWXYZabcdefghijklmnopqrstuvwxyz**************************
**PARASOLID !"#$%&'()*+,-./:;<=>?@[\]^_`{|}~0123456789**************************
**PART1;
MC=x64/Windows NT;
MC_MODEL=genuineintel family 6 model 14 stepping 12, intel(r) core(tm) i7-9700k cpu @ 3.60ghz;
MC_ID=desktop-ae50iec;
OS=windows nt (x64);
OS_RELEASE=6.3 windows 10 education (build 17763) ;
FRU=mdc_ugii_v7.0_djl_can_vrh;
APPL=unigraphics;
SITE=unknown;
USER=CC;
FORMAT=text;
GUISE=transmit;
KEY=cup_a_10_h_1_b_0.1;
FILE=C:\Users\CC\Desktop\cup\cup_a_10_h_1_b_0.1.x_t;
DATE=24-may-2019;
**PART2;
SCH=SCH_2700178_26105;
USFLD_SIZE=0;
**PART3;
**END_OF_HEADER*****************************************************************
T51 : TRANSMIT FILE created by modeller version 270017823 SCH_2700178_26105_1300
6196 0 12 30 CCCCCCCCCCCCCDI5 owner1040 0 CCCCCCCCCA13 boundary_mesh1006 0 A16 i
ndex_map_offset0 0 1 dA9 index_map82 0 A17 node_id_index_map82 0 A20 schema_embe
dding_map82 0 A5 child12 0 A14 lowest_node_id0 0 1 dZ1 288 2 3 0 0 0 0 1e3 1e-8
 0 0 0 1 0 1 1 4 5 6 7 8 9 10 0 0 0 0 0 0 0 81 255 1 2 288 11 1 12 0 0 0 13 70 1
1 CI9 list_type0 0 1 uI10 notransmit0 0 1 lCCCDCCDI12 finger_index0 0 1 dI12 fin
ger_block1012 0 CZ3 0 4 T1 0 0 5 20 1 14 14 13 255 4 3 0 1 0 15 0 0 16 0 50 255
 5 54 0 15 17 0 0 +.05 .05 .1 0 0 1 1 0 0 30 255 6 62 0 9 18 0 0 +.05 0 .1 -1 0
 0 29 255 7 81 0 10 19 0 .01 .09 .1 19 8 CCCCCCCA5 owner12 0 Z8 1 0 1 16 0 20 V0
 16 255 9 34 21 ?22 0 23 6 0 0 1 18 255 10 79 0 24 0 25 7 ?1 17 255 24 0 26 27 2
8 10 29 30 0 31 +18 25 23 0 22 10 32 19 ?1 17 22 0 33 34 35 25 36 9 0 37 +18 32
 21 0 38 25 39 40 ?1 29 19 58 0 25 40 7 0 0 .1 29 40 57 0 32 41 19 0 .1 .1 29 41
 56 0 39 42 40 .1 .1 .1 18 39 19 0 43 32 44 41 ?1 29 42 55 0 44 45 41 .1 0 .1 18
 44 17 0 36 39 46 42 ?1 29 45 41 0 47 48 42 0 0 0 18 47 11 0 34 49 50 45 ?1 29 4
8 40 0 49 51 45 0 .1 0 18 49 13 0 52 46 47 48 ?1 29 51 39 0 46 53 48 .1 .1 0 18
 46 15 0 54 44 49 51 ?1 29 53 38 0 50 55 51 .1 0 0 18 50 10 0 56 47 57 53 ?1 29
 55 190 0 58 59 53 .09 .09 .1 18 58 140 0 28 60 61 55 ?1 29 59 191 0 61 62 55 .0
9 .00999999999999982 .1 18 61 138 0 63 58 64 59 ?1 29 62 192 0 64 65 59 .01 .01
 .1 18 64 144 0 66 61 0 62 ?1 29 65 193 0 57 67 62 .01 .09 .01 18 57 143 0 27 50
 68 65 ?1 29 67 194 0 68 69 65 .09 .09 .01 18 68 141 0 70 57 71 67 ?1 29 69 195
 0 71 72 67 .09 .00999999999999982 .01 18 71 139 0 73 68 60 69 ?1 29 72 196 0 60
 0 69 .01 .01 .01 18 60 137 0 74 71 58 72 ?1 17 74 0 75 76 77 60 66 78 0 79 +15
 255 75 160 0 77 80 0 17 76 0 75 31 74 57 79 81 0 0 +17 77 0 75 74 31 64 82 83 0
 84 +17 66 0 85 86 87 64 74 78 0 77 -16 78 119 88 ?74 89 81 90 0 0 1 17 79 0 91
 92 93 60 76 81 0 87 -15 91 164 0 92 94 0 17 92 0 91 95 79 71 87 96 0 0 -17 93 0
 91 79 95 57 97 98 0 76 -16 81 117 99 ?76 78 98 100 0 0 1 17 87 0 85 66 73 60 92
 96 0 0 +15 85 148 0 86 101 0 17 73 0 85 87 86 71 63 102 0 103 +16 96 105 104 ?8
7 105 83 106 0 0 1 81 1 104 252 107 96 0 0 108 88 109 16 105 109 110 ?103 98 96
 111 0 0 1 16 83 133 112 ?77 96 30 113 0 0 1 30 106 188 0 96 0 111 0 -.01 .01 .0
1 1 -1062518129035794e-30 0 30 111 187 0 105 106 114 0 -.09 .01000000000000016 .
01 1040834085586084e-30 1 0 30 114 186 0 98 111 100 0 -.09 .09 .01 -1 1214306433
183764e-30 0 16 98 113 115 ?97 81 105 114 0 0 1 30 100 185 0 81 114 116 0 -.01 .
09 .01 -1062518129035794e-30 -1 0 30 116 184 0 117 100 118 0 +.01 .01 .1 1 -1062
518129035794e-30 0 16 117 121 119 ?86 120 0 116 0 0 1 30 118 183 0 120 116 121 0
 +.09 .01000000000000016 .1 1040834085586084e-30 1 0 16 120 125 122 ?123 30 117
 118 0 0 1 30 121 182 0 30 118 113 0 +.09 .09 .1 -1 1214306433183764e-30 0 16 30
 129 124 ?24 83 120 121 0 0 1 30 113 181 0 83 121 125 0 +.01 .09 .1 -10625181290
35794e-30 -1 0 30 125 180 0 89 113 126 0 -.01 .09 .01 0 0 1 16 89 115 127 ?27 12
8 78 125 0 0 1 30 126 179 0 128 125 129 0 -.09 .09 .01 0 0 1 16 128 111 130 ?70
 102 89 126 0 0 1 30 129 178 0 102 126 90 0 -.09 .00999999999999982 .01 0 0 1 16
 102 107 108 ?73 131 128 129 0 0 1 30 90 177 0 78 129 132 0 -.01 .01 .01 0 0 1 3
0 132 42 0 131 90 133 0 +.05 0 0 1 0 0 16 131 12 134 ?135 136 102 132 0 0 1 30 1
33 43 0 137 132 138 0 +.1 .05 0 0 1 0 16 137 6 139 ?140 141 142 133 0 0 1 30 138
 44 0 142 133 143 0 +.05 .1 0 -1 0 0 16 142 16 144 ?145 137 136 138 0 0 1 30 143
 45 0 136 138 146 0 +0 .05 0 0 -1 0 16 136 14 147 ?148 142 131 143 0 0 1 30 146
 50 0 141 143 149 0 +.1 0 0 0 0 1 16 141 18 150 ?35 151 137 146 0 0 1 30 149 51
 0 151 146 152 0 +.1 .1 0 0 0 1 16 151 20 153 ?154 155 141 149 0 0 1 30 152 52 0
 155 149 156 0 +0 .1 0 0 0 1 16 155 22 157 ?158 159 151 152 0 0 1 30 156 53 0 15
9 152 160 0 +0 0 0 0 0 1 16 159 24 161 ?162 163 155 156 0 0 1 30 160 59 0 163 15
6 164 0 +.1 .05 .1 0 -1 0 16 163 25 165 ?166 167 159 160 0 0 1 30 164 60 0 167 1
60 18 0 +.05 .1 .1 1 0 0 16 167 28 168 ?43 23 163 164 0 0 1 30 18 61 0 23 164 6
 0 +0 .05 .1 0 1 0 16 23 31 169 ?38 9 167 18 0 0 1 81 1 169 236 107 23 0 0 153 1
50 170 17 38 0 171 52 162 32 37 23 0 172 +15 171 29 0 162 173 0 17 52 0 171 148
 38 49 158 155 0 145 -17 162 0 171 38 148 25 34 159 0 0 +17 37 0 174 36 172 25 3
8 23 0 162 -17 172 0 174 37 175 32 43 167 0 158 -15 174 35 0 36 15 0 17 175 0 17
4 172 36 39 166 163 0 154 -17 43 0 176 54 158 39 172 167 0 175 +17 158 0 176 43
 145 32 52 155 0 0 +15 176 26 0 158 177 0 17 145 0 176 158 54 49 178 142 0 179 +
17 54 0 176 145 43 46 154 151 0 178 -17 178 0 180 181 179 46 145 142 0 140 -17 1
79 0 180 178 182 49 148 136 0 0 -15 180 8 0 181 183 0 17 182 0 180 179 181 47 13
5 131 0 0 -17 148 0 171 162 52 47 179 136 0 182 +17 181 0 180 182 178 50 140 137
 0 0 -17 135 0 33 35 34 50 182 131 0 181 +15 33 32 0 35 184 0 17 35 0 33 22 135
 44 56 141 0 0 +17 34 0 33 135 22 47 162 159 0 148 -17 56 0 185 140 166 50 35 14
1 0 135 -15 185 7 0 140 186 0 17 140 0 185 154 56 46 181 137 0 0 +17 166 0 185 5
6 154 44 175 163 0 35 +17 154 0 185 166 140 39 54 151 0 0 +14 255 186 2 187 ?101
 183 185 4 188 +0 0 101 183 20 81 1 187 277 189 186 190 0 191 192 193 14 101 145
 192 ?194 186 85 4 195 -0 0 194 186 20 14 183 9 191 ?186 177 180 4 196 +0 0 186
 177 20 50 188 46 0 186 196 197 0 +.1 .05 0 1 0 0 0 0 -1 13 20 4 0 0 0 0 0 0 8 1
5 14 15 36 198 ?184 0 199 4 5 +0 0 184 0 20 81 1 198 267 189 15 200 0 0 201 202
 14 184 33 201 ?173 15 33 4 17 +0 0 173 15 20 15 199 92 0 84 15 174 17 84 0 199
 82 203 64 86 117 0 0 -17 82 0 199 29 84 10 77 83 0 0 -17 203 0 199 84 29 61 123
 120 0 0 -17 86 0 85 73 66 61 84 117 0 203 +17 29 0 199 203 82 58 24 30 0 0 -17
 123 0 204 70 63 58 203 120 0 29 +15 204 152 0 123 194 0 17 70 0 204 103 123 68
 28 128 0 95 +17 63 0 204 123 103 61 73 102 0 86 -17 103 0 204 63 70 71 95 105 0
 92 +17 95 0 91 93 92 68 103 105 0 97 -17 97 0 26 28 27 68 93 98 0 0 +15 26 156
 0 24 205 0 17 28 0 26 24 97 58 70 128 0 123 -17 27 0 26 97 24 57 31 89 0 93 +17
 31 0 75 77 76 10 27 89 0 82 -14 205 153 206 ?80 194 26 4 207 -0 0 80 194 20 81
 1 206 283 189 205 208 0 209 210 211 14 80 157 210 ?94 205 75 4 212 -0 0 94 205
 20 14 194 149 209 ?205 101 204 4 213 -0 0 205 101 20 50 207 173 0 205 212 213 0
 +.09 .09 .01 1214306433183764e-30 1 0 -1 1214306433183764e-30 0 50 212 174 0 80
 214 207 0 +.01 .09 .01 -1 1062518129035794e-30 0 -1062518129035794e-30 -1 0 50
 213 172 0 194 207 195 0 +.09 .01000000000000016 .01 1 -1040834085586084e-30 0 1
040834085586084e-30 1 0 50 195 171 0 101 213 196 0 +.01 .01 .01 -106251812903579
4e-30 -1 0 1 -1062518129035794e-30 0 50 196 37 0 183 195 188 0 +.05 .05 0 0 0 -1
 -1 0 0 50 214 176 0 94 0 212 0 +0 0 .01 0 0 1 1 0 0 14 94 161 215 ?0 80 91 4 21
4 +0 0 0 80 20 81 1 215 287 189 94 216 0 210 0 217 80 255 1 189 0 218 8001 0 0 0
 0 3 5 0 0 0 FFFFTFTFFFFFFF2 81 1 216 286 219 94 220 215 221 0 222 81 1 210 285
 189 80 221 0 206 215 223 83 255 3 217 1 .6 0 81 1 221 284 219 80 224 210 208 21
6 225 83 3 223 1 .6 0 80 1 219 226 227 8015 0 0 0 0 3 5 0 0 0 FFFFTFFFFFFFFF2 81
 1 224 265 107 80 0 221 228 0 229 81 1 208 282 219 205 228 206 230 221 231 83 1
 225 0 81 1 228 264 107 205 0 208 232 224 233 81 1 230 280 219 194 232 209 234 2
08 235 83 1 231 0 81 1 232 263 107 194 0 230 236 228 237 81 1 209 281 189 194 23
0 0 192 206 238 81 1 234 278 219 101 236 192 190 230 239 83 1 235 0 81 1 236 262
 107 101 0 234 220 232 240 81 1 192 279 189 101 234 0 187 209 241 81 1 190 276 2
19 186 242 187 243 234 244 83 1 239 0 81 1 242 258 107 186 0 190 245 246 247 81
 1 243 274 219 183 246 191 248 190 249 83 1 244 0 81 1 246 259 107 183 0 243 242
 250 251 81 1 191 275 189 183 243 0 252 187 253 81 1 248 272 219 177 254 252 255
 243 256 83 1 249 0 14 177 27 252 ?183 173 176 4 197 +0 0 183 173 20 81 1 254 25
6 107 177 0 248 257 245 258 81 1 252 273 189 177 248 0 259 191 260 81 1 255 270
 219 173 250 259 261 248 262 83 1 256 0 14 173 30 259 ?177 184 171 4 263 +0 0 17
7 184 20 81 1 250 260 107 173 0 255 246 220 264 81 1 259 271 189 173 255 0 201 2
52 265 81 1 261 268 219 184 245 201 200 255 266 83 1 262 0 81 1 245 257 107 184
 0 261 254 242 267 81 1 201 269 189 184 261 0 198 259 268 81 1 200 266 219 15 25
7 198 0 261 269 83 1 266 0 81 1 257 255 107 15 0 200 119 254 270 83 1 269 0 80 1
 107 271 272 9000 1 1 1 1 1 1 1 1 0 FFFFTFTFFFFFFF3 81 1 119 254 107 117 0 0 88
 257 273 84 255 32 270 931d7f56ca302741c12bd4f74a71ada981 1 88 253 107 78 0 0 10
4 119 274 84 32 273 dfc6be111476d2352474d882c4be3e0684 32 274 4a2627157c22d8da34
a10d43876a443f79 255 15 272 UGS/ObjectState83 3 268 1 .6 0 84 32 267 625ba9aaebe
79ef989cde57e828c372383 3 265 1 .6 0 81 1 220 261 107 94 0 216 250 236 275 84 32
 264 5f1d11f39599749a064e67601adbb24584 32 275 cacd18fcb73d8fd66267f9aee051749a5
0 263 48 0 173 197 17 0 +0 .05 0 -1 0 0 0 0 1 50 197 47 0 177 188 263 0 +.05 .1
 0 0 1 0 0 0 1 50 17 49 0 184 263 5 0 +.05 0 0 0 -1 0 0 0 -1 83 3 260 1 .6 0 84
 32 258 011ab3fd1a5f9a5b56c4fcfd4150ab4583 3 253 1 .6 0 84 32 251 6745f8ac167310
13aaae9caac8192e2284 32 247 029dd5d1fe7d8e504a7affa56faa18dd83 3 241 1 .6 0 84 3
2 240 5e22ba4c11e7a70119b00ec889facbce83 3 238 1 .6 0 84 32 237 83c3dfca292d48a0
59b9dfe4b91af45e84 32 233 d48da85bd06992814724b22b0481d5f384 32 229 e94dd84c2fbb
5870aefb344778ffe9c179 21 227 SDL/TYSA_TRANSLUCENCY83 1 222 0 79 15 218 SDL/TYSA
_COLOUR83 3 211 1 .6 0 83 3 202 1 .6 0 83 3 193 1 .6 0 17 36 0 174 175 37 44 22
 9 0 166 -81 1 153 235 107 151 0 0 165 169 276 81 1 150 237 107 141 0 0 169 147
 277 84 32 170 b2ac7708b5c263f5a04d767b73f8aaae81 1 147 238 107 136 0 0 150 144
 278 84 32 277 4e88fb17a4458988f1cfd2f805b8127981 1 144 239 107 142 0 0 147 139
 279 84 32 278 3b26d098e9dfb3661421cda45383e6e681 1 139 240 107 137 0 0 144 168
 280 84 32 279 3162244298563e960122dd39e2c383b381 1 168 241 107 167 0 0 139 134
 281 84 32 280 6189c61cda697e6072cdf1c744641d7c81 1 134 242 107 131 0 0 168 115
 282 84 32 281 5db9eca18ec20a33ad74a144b1c80fbb81 1 115 243 107 98 0 0 134 112 2
83 84 32 282 5c237e6a1e718bbe43a4aded3e02ffc781 1 112 244 107 83 0 0 115 99 284
 84 32 283 b22bb2d2fa69f3586164b778f0d3c82b81 1 99 245 107 81 0 0 112 110 285 84
 32 284 bc1599870500f09273a0fb780fe61a3881 1 110 246 107 105 0 0 99 124 286 84 3
2 285 91094a1c2ab0a38dbd610c41f4f39ff181 1 124 247 107 30 0 0 110 127 287 84 32
 286 dd14c8459a560f8e0fb5d8e0b71d228a81 1 127 248 107 89 0 0 124 122 288 84 32 2
87 4ec6e2a4eb693d03ad05821524998d8081 1 122 249 107 120 0 0 127 130 289 84 32 28
8 a35d29bd8192219a5be183b6b593654a81 1 130 250 107 128 0 0 122 108 290 84 32 289
 431cf883829be5dcce7303e8059e217481 1 108 251 107 102 0 0 130 104 291 84 32 290
 ec133c6cac1f218ae2a4d23a1faf428b84 32 291 4547133fcf4d474e1807e8ea5eeadc5d81 1
 165 234 107 163 0 0 157 153 292 84 32 276 66a28e3b89e4fced57e80ce94218376081 1
 157 233 107 155 0 0 161 165 293 84 32 292 0ef6a4db0c303526def98393796e127a81 1
 161 232 107 159 0 0 21 157 294 84 32 293 0e85408166dcbbfbf41951a430c270d181 1 2
1 231 107 9 0 0 0 161 295 84 32 294 f454c5c16f884779c02b69a118916e3484 32 295 e2
894ee7ab4f2e481962c4c49c0cc58684 32 109 82d83187d72302d2e4055e00316b889019 16 5
 0 1 0 8 4 S0 74 4 CI16 index_map_offset0 0 1 dCCZ20 14 5 0 0 12 224 216 215 2 0
 0 0 0 0 0 0 0 0 0 0 0 0 0 0 81 2 12 230 296 1 0 2 0 0 297 298 80 2 296 299 300
 8004 0 0 0 0 3 5 0 0 0 FFTFFFFFFFFFFF2 3 83 1 297 7830.64 84 8 298 Kg/Cu M 79 1
6 300 SDL/TYSA_DENSITY80 1 11 301 302 9000 0 0 0 0 3 5 0 0 0 FFTFFFFFFFFFFF1 82
 255 1 13 78 79 24 302 UG2/BODY_COLOR_ATTRIBUTE1 0 
